<?xml version="1.0" encoding="UTF-8"?>
<svg id="Layer_1" data-name="Layer 1" xmlns="http://www.w3.org/2000/svg" viewBox="0 0 14.37 15.95">
  <defs>
    <style>
      .cls-1 {
        fill: #cd7755;
      }
    </style>
  </defs>
  <path class="cls-1" d="M14.32,12.54l-3.7-3.94,3.57-1.87c.07-.04.1-.11.09-.19-.01-.08-.07-.13-.15-.14l-1.58-.21,1.63-1.9c.05-.06.06-.14.02-.21-.04-.07-.12-.1-.19-.08l-4.45,1.1L8.62.14c-.01-.08-.08-.14-.16-.14-.08,0-.15.04-.18.12l-1.37,3.92-1.67-1.93c-.05-.06-.13-.08-.2-.05-.07.03-.11.1-.11.17l.14,2.52-3.22-1.5c-.07-.03-.16-.01-.21.05-.05.06-.05.15,0,.22l3.07,3.87L.11,9.39c-.07.03-.12.11-.1.19.01.08.08.14.16.15l3.19.27-.94,1.04c-.05.06-.06.15-.02.21.04.07.13.09.2.07l3.29-1.15-.09,5.6c0,.08.05.15.13.17,0,0,0,0,.01,0,.08.02.16-.02.2-.1l1.97-4.46,1.37,1.05c.06.04.13.05.19.01.06-.03.1-.1.09-.17l-.11-1.25,4.48,1.79c.08.03.16,0,.21-.06.05-.07.04-.16-.02-.22M13.44,12.11l-4.46-2.91.14-1.28,1.05.63s.01.09.04.12l3.23,3.44ZM8.34,10.19h0s-.87-.25-.87-.25l-.91-1.29.13-.95.53-.32,1.37,2.88-.26-.08ZM7.37,7.29l.54-.33s.01.03.03.04l1,.8-.24,2.27-1.33-2.79ZM8.11,1.68l-.57,3.4-.4-.63s0-.01.01-.02l.96-2.75ZM7.68,5.3l.73-4.37.83,4.42-1.02.79-.54-.84ZM13.43,4.51l-4.39,3.15-.98-.79h.03s0-.02,0-.02h0s0,0,0,0c0,0,.01,0,.02-.01,0,0,0-.01,0-.02,0,0,0,0,0-.01l.14-.48,4.97-1.77.19-.05ZM13.53,6.67l-3.28,1.72s0,0,0,0l-.21-.13,2.11-1.78s.02,0,.04,0l1.36.18ZM12.07,6.21s-.05.09-.04.14l-2.15,1.82-.68-.4,4-2.87-1.13,1.31ZM11.52,4.99l-2.83,1.01.66-.51s.07.02.11.01l2.06-.51ZM6.85,4.49s.09.06.14.06l.53.82s0,0,0,0l.59.91-.13.45-.67.4-1.78-4.17,1.32,1.53ZM5.33,2.95l1.82,4.27-.55.33-.73-.21-.48-2.18s.06-.08.06-.14l-.11-2.08ZM5.19,5.19s.01,0,.02,0l.24,1.07-2.78-2.25,2.52,1.17ZM2.65,4.23l2.86,2.31.17.79-.55.03s0,0,0-.01l-2.47-3.12ZM5.06,7.62s.06-.05.08-.08l.64-.04.73.21-.13.88-5.26.74,3.93-1.71ZM1.36,9.48l4.47-.63-2.01.86s-.06-.03-.09-.03l-2.37-.2ZM3.13,10.76l.72-.8s.04-.06.04-.1l2.54-1.09.43.61-.71.38s-.03-.02-.04-.02c-.03-.01-.07,0-.11,0l-2.88,1ZM6.24,9.93l.73-.39.35.49-1.15,4.61.07-4.71ZM7.88,11.04l-1.44,3.27,1.04-4.19.72.21-.2.6s0,0,0,0c-.05.01-.1.05-.12.1M8.17,10.99l.2-.61.36.1.55.28s0,0,0,0l.1,1.14-1.2-.92ZM9.51,10.6c-.05-.02-.11-.01-.16.02l-.5-.26.1-.96,3.88,2.52-3.32-1.33Z"/>
</svg>