<?xml version="1.0" encoding="UTF-8"?>
<svg id="Layer_1" data-name="Layer 1" xmlns="http://www.w3.org/2000/svg" viewBox="0 0 47.95 15.8">
  <defs>
    <style>
      .cls-1 {
        fill: #cd7755;
      }

      .cls-2 {
        fill: #152a36;
      }
    </style>
  </defs>
  <path class="cls-1" d="M12.46,10.91l-3.22-3.43,3.1-1.63c.06-.03.09-.1.08-.16-.01-.07-.06-.12-.13-.12l-1.38-.18,1.42-1.65c.04-.05.05-.12.01-.18-.03-.06-.1-.08-.17-.07l-3.87.96L7.5.12c-.01-.07-.07-.12-.14-.12-.07,0-.13.04-.16.1l-1.19,3.41-1.45-1.68s-.11-.07-.17-.04c-.06.02-.1.08-.1.15l.12,2.2-2.8-1.31c-.06-.03-.14-.01-.18.04-.04.06-.04.13,0,.19l2.67,3.37L.09,8.17c-.06.03-.1.1-.09.16.01.07.07.12.14.13l2.77.23-.81.91c-.05.05-.05.13-.01.19.04.06.11.08.18.06l2.86-1-.07,4.87c0,.07.04.13.11.15,0,0,0,0,.01,0,.07.02.14-.02.17-.09l1.71-3.88,1.19.91s.11.04.17.01c.05-.03.08-.09.08-.15l-.09-1.09,3.9,1.56c.07.03.14,0,.18-.06.04-.06.03-.14-.01-.19M11.69,10.54l-3.88-2.53.12-1.11.92.55s.01.08.04.1l2.81,2.99ZM7.25,8.87h0s-.76-.22-.76-.22l-.79-1.12.12-.82.46-.28,1.2,2.51-.22-.07ZM6.42,6.35l.47-.28s.01.03.02.04l.87.7-.21,1.98-1.16-2.43ZM7.05,1.46l-.49,2.96-.35-.55s0-.01,0-.02l.84-2.39ZM6.68,4.61l.63-3.8.72,3.85-.89.68-.47-.73ZM11.68,3.93l-3.82,2.74-.85-.68h.02s0-.01,0-.01h0s0,0,0,0c0,0,0,0,.01-.01,0,0,0-.01,0-.02,0,0,0,0,0,0l.12-.42,4.32-1.54.17-.04ZM11.78,5.81l-2.86,1.5s0,0,0,0l-.19-.11,1.83-1.55s.02,0,.03,0l1.18.16ZM10.5,5.4s-.04.08-.03.13l-1.87,1.59-.59-.35,3.48-2.5-.98,1.14ZM10.02,4.34l-2.46.88.57-.44s.06.02.09,0l1.8-.45ZM5.96,3.91s.08.05.12.05l.46.71s0,0,0,0l.51.79-.11.39-.58.35-1.55-3.63,1.15,1.33ZM4.64,2.57l1.58,3.72-.48.29-.63-.18-.42-1.9s.05-.07.05-.12l-.1-1.81ZM4.52,4.52s.01,0,.02,0l.21.93-2.42-1.96,2.19,1.02ZM2.31,3.68l2.49,2.01.15.69-.48.03s0,0,0-.01l-2.15-2.71ZM4.4,6.63s.05-.04.07-.07l.56-.03.63.18-.11.77-4.58.64,3.42-1.49ZM1.18,8.25l3.89-.55-1.75.75s-.05-.03-.08-.03l-2.06-.17ZM2.72,9.37l.62-.69s.03-.05.04-.08l2.21-.95.38.53-.62.33s-.02-.01-.04-.02c-.03,0-.06,0-.09,0l-2.51.87ZM5.43,8.64l.63-.34.3.43-1,4.01.06-4.1ZM6.85,9.6l-1.26,2.85.91-3.64.63.18-.17.53s0,0,0,0c-.05.01-.08.04-.1.09M7.11,9.56l.17-.53.31.09.48.24s0,0,0,0l.09.99-1.05-.8ZM8.28,9.22s-.1-.01-.14.01l-.44-.22.09-.83,3.37,2.2-2.89-1.15Z"/>
  <g>
    <g>
      <path class="cls-2" d="M18.23,6.84c.45.39.68.95.68,1.7,0,.48-.11.9-.33,1.25-.22.36-.54.64-.96.83s-.91.3-1.49.3h-.41c-.26-.02-.46-.02-.58-.02-.51,0-.9,0-1.15.02v-.13c.14,0,.24-.03.31-.05.06-.03.11-.08.13-.15.02-.07.03-.2.03-.36v-3.27c0-.17-.01-.29-.04-.36s-.07-.13-.13-.15c-.06-.03-.16-.04-.3-.05v-.13c.2.01.5.02.9.02h.53c.37-.02.63-.02.77-.02.91,0,1.59.19,2.04.58ZM15.99,6.42c-.07.03-.12.09-.14.16-.03.08-.04.2-.04.36v3.29c0,.16.01.28.04.36.03.08.07.13.14.16.07.03.17.05.31.05.43,0,.75-.19.94-.56.19-.38.29-.93.29-1.68s-.1-1.29-.3-1.65c-.2-.36-.51-.54-.94-.54-.14,0-.24.02-.31.05Z"/>
      <path class="cls-2" d="M22.16,7.6c.09.13.14.29.14.47,0,.2-.06.35-.17.47-.11.12-.26.17-.44.17-.19,0-.33-.04-.43-.13-.1-.09-.15-.2-.15-.35,0-.26.11-.46.34-.61-.08,0-.15.02-.21.05-.11.05-.2.13-.28.23-.07.11-.11.23-.11.35v1.98c0,.21.04.35.13.42.09.08.23.12.44.12v.14c-.06,0-.11,0-.14,0-.46-.01-.77-.02-.92-.02-.14,0-.44,0-.92.02-.04,0-.08,0-.14,0v-.14c.14,0,.23-.03.29-.1.05-.07.08-.19.08-.37v-2.09c0-.2-.03-.35-.08-.44-.06-.09-.15-.14-.29-.14v-.14c.14.01.28.02.41.02.46,0,.84-.03,1.15-.09v.47c.17-.33.45-.49.85-.49.21,0,.37.07.46.2Z"/>
      <path class="cls-2" d="M23.48,10.02c.11.1.17.24.17.42s-.06.32-.17.42c-.11.1-.27.14-.48.14s-.37-.05-.48-.14c-.11-.1-.17-.24-.17-.42s.06-.32.17-.42c.11-.1.27-.14.48-.14s.37.05.48.14Z"/>
      <path class="cls-2" d="M28.91,6.27c.2.07.39.18.55.32.05.04.09.06.13.06.04,0,.08-.03.11-.1.03-.06.05-.16.06-.3h.15c-.02.31-.03.86-.03,1.65h-.15c-.03-.35-.09-.62-.17-.82s-.23-.37-.43-.51c-.09-.06-.2-.11-.32-.14s-.24-.05-.36-.05c-.32,0-.57.11-.77.33-.2.22-.33.5-.41.84-.08.34-.12.69-.12,1.06,0,.76.09,1.33.28,1.71.19.38.45.57.78.57.14,0,.24-.03.32-.08.09-.07.14-.18.14-.33v-.66c0-.22-.02-.38-.05-.48-.04-.1-.1-.17-.19-.21-.09-.04-.23-.06-.42-.07v-.13c.3.01.72.02,1.26.02.45,0,.79,0,1.01-.02v.13c-.08,0-.14.03-.17.05-.04.03-.06.08-.08.15-.01.07-.02.2-.02.36v1.3h-.13c0-.09-.02-.18-.06-.26s-.08-.12-.14-.12c-.09,0-.24.05-.45.15-.44.21-.81.32-1.11.32-.82,0-1.43-.21-1.85-.62-.42-.41-.63-1-.63-1.76,0-.48.11-.91.33-1.28.22-.37.52-.66.91-.87.39-.21.83-.31,1.32-.31.28,0,.52.04.72.11Z"/>
      <path class="cls-2" d="M31.68,6.41c.05.07.09.15.12.26.03.11.05.23.05.36,0,.23-.06.44-.18.63-.12.19-.29.34-.52.45l-.06-.12c.11-.05.22-.13.31-.23.09-.1.15-.2.19-.31.02-.06.03-.13.03-.22,0-.07,0-.11-.01-.14-.11.14-.27.2-.48.2-.18,0-.32-.05-.42-.15s-.16-.24-.16-.42.06-.31.17-.41.26-.15.45-.15c.24,0,.41.08.52.24Z"/>
      <path class="cls-2" d="M34.02,7.46c.15.04.27.08.35.12.05.03.09.04.12.04.09,0,.15-.07.16-.21h.13c-.02.23-.03.62-.03,1.19h-.13c-.04-.29-.12-.53-.25-.73-.13-.2-.32-.3-.56-.3-.11,0-.2.03-.28.1-.07.07-.11.16-.11.27,0,.14.05.27.14.39.1.11.25.25.45.41,0,0,.07.05.19.15.25.2.43.38.54.54.11.16.17.35.17.58,0,.19-.06.37-.18.52-.12.16-.28.28-.48.36-.2.09-.43.13-.67.13-.28,0-.5-.05-.68-.16-.07-.04-.14-.07-.18-.09-.05-.02-.1-.03-.14-.03-.08,0-.14.08-.18.23h-.13c.02-.25.03-.69.03-1.32h.13c.04.36.14.65.29.87.15.22.35.33.58.33.11,0,.2-.03.27-.09.07-.06.11-.15.11-.27s-.03-.23-.08-.33c-.05-.1-.11-.18-.18-.26-.07-.08-.19-.19-.35-.33-.18-.17-.32-.31-.42-.41-.1-.1-.18-.22-.25-.35-.07-.13-.1-.28-.1-.44,0-.19.06-.36.17-.5.11-.14.27-.26.45-.33.19-.08.39-.12.61-.12.17,0,.33.02.48.06Z"/>
      <path class="cls-2" d="M39.11,6.39c-.16,0-.27.03-.35.05-.07.03-.12.08-.15.15-.03.07-.04.2-.04.36v3.4c0,.12,0,.21.03.27.02.06.05.1.09.12.04.02.12.03.22.03h.22c.15,0,.32-.08.5-.23.18-.15.34-.36.49-.61.14-.25.24-.51.29-.79h.15c-.01.16-.02.36-.02.61,0,.47.02.86.05,1.17-.3-.01-.8-.02-1.51-.02-1.03,0-1.8,0-2.3.02v-.13c.14,0,.24-.03.31-.05.06-.03.11-.08.13-.15.02-.07.03-.2.03-.36v-3.27c0-.17-.01-.29-.04-.36s-.07-.13-.13-.15c-.06-.03-.16-.04-.3-.05v-.13c.25.01.64.02,1.17.02s.89,0,1.17-.02v.13Z"/>
      <path class="cls-2" d="M41.07,10.74c-.14-.15-.21-.34-.21-.57,0-.2.05-.36.15-.49s.22-.23.37-.3c.14-.07.32-.14.55-.22.24-.08.41-.15.52-.22.11-.07.16-.16.16-.28v-.59c0-.14-.04-.27-.11-.38-.07-.11-.19-.16-.36-.16-.14,0-.26.04-.37.11.15.05.26.13.33.23.07.1.11.22.11.35,0,.17-.06.31-.18.41-.12.1-.27.15-.44.15s-.31-.05-.41-.16c-.1-.11-.15-.24-.15-.41,0-.13.03-.25.1-.34.07-.1.17-.18.31-.26.25-.14.6-.21,1.05-.21.24,0,.45.02.63.07.18.05.32.13.45.26.09.09.15.21.17.35.03.14.04.33.04.58v1.76c0,.11,0,.18.02.22.02.04.04.06.08.06.03,0,.06,0,.1-.03.04-.02.07-.04.1-.07l.07.11c-.19.16-.46.24-.81.24-.26,0-.45-.05-.55-.13-.11-.09-.16-.21-.17-.37-.21.33-.51.5-.92.5-.28,0-.49-.08-.64-.23ZM42.61,10.32v-1.39c-.04.07-.11.15-.22.26-.12.11-.21.23-.27.33-.06.11-.09.25-.09.44,0,.32.11.47.34.47.09,0,.17-.04.24-.11Z"/>
      <path class="cls-2" d="M47.64,7.83c.21.28.32.69.32,1.23,0,.7-.14,1.2-.42,1.5-.28.3-.65.45-1.11.45-.14,0-.26,0-.35-.01s-.18-.03-.26-.07c-.16-.07-.33-.1-.51-.1-.13,0-.25.02-.37.05-.11.04-.2.08-.26.14l-.09-.07c.03-.09.05-.21.05-.36v-4.04c0-.2-.03-.35-.08-.44s-.15-.14-.29-.14v-.14c.14.01.27.02.41.02.46,0,.84-.03,1.15-.09v2.13c.2-.33.54-.49,1-.49.34,0,.62.14.83.42ZM46.72,9.21c0-.54-.04-.92-.12-1.14s-.19-.33-.32-.33c-.13,0-.24.05-.33.14-.09.09-.14.2-.14.34v2.57c.1.05.2.08.31.08.4,0,.61-.56.61-1.67Z"/>
    </g>
    <g>
      <path class="cls-2" d="M16.6,15.23c-.07.06-.17.09-.27.09-.24,0-.38-.14-.38-.38v-.78h-.23v-.15h.23v-.28h.18v.28h.39v.15h-.39v.78c0,.15.08.24.22.24.07,0,.14-.02.19-.07l.06.13Z"/>
      <path class="cls-2" d="M17.57,14v.17s-.03,0-.04,0c-.27,0-.44.17-.44.48v.66h-.18v-1.3h.17v.25c.08-.17.25-.26.49-.26Z"/>
      <path class="cls-2" d="M18.87,14.5v.8h-.17v-.2c-.08.13-.23.21-.45.21-.29,0-.47-.15-.47-.38,0-.2.13-.37.5-.37h.41v-.08c0-.22-.13-.34-.37-.34-.17,0-.33.06-.43.15l-.08-.13c.13-.11.32-.18.53-.18.34,0,.53.17.53.5ZM18.69,14.92v-.21h-.41c-.25,0-.33.1-.33.23,0,.15.12.24.33.24s.34-.09.41-.26Z"/>
      <path class="cls-2" d="M20.52,14.01v1.3h-.17v-.24c-.09.16-.26.25-.47.25-.33,0-.55-.19-.55-.56v-.75h.18v.74c0,.28.14.42.39.42.27,0,.44-.18.44-.47v-.68h.18Z"/>
      <path class="cls-2" d="M23.15,14.55v.75h-.18v-.74c0-.27-.14-.41-.37-.41-.27,0-.43.17-.43.47v.68h-.18v-.74c0-.27-.14-.41-.38-.41-.26,0-.43.17-.43.47v.68h-.18v-1.3h.17v.24c.09-.16.26-.25.48-.25s.38.09.46.27c.09-.17.28-.27.51-.27.32,0,.52.18.52.56Z"/>
      <path class="cls-2" d="M24.61,14.5v.8h-.17v-.2c-.08.13-.23.21-.45.21-.29,0-.47-.15-.47-.38,0-.2.13-.37.5-.37h.41v-.08c0-.22-.13-.34-.37-.34-.17,0-.33.06-.43.15l-.08-.13c.13-.11.32-.18.53-.18.34,0,.53.17.53.5ZM24.43,14.92v-.21h-.41c-.25,0-.33.1-.33.23,0,.15.12.24.33.24s.34-.09.41-.26Z"/>
      <path class="cls-2" d="M24.99,14.56h.65v.15h-.65v-.15Z"/>
      <path class="cls-2" d="M25.99,13.6c0-.07.06-.12.13-.12s.13.05.13.12c0,.07-.05.13-.13.13s-.13-.06-.13-.13ZM26.03,14.01h.18v1.3h-.18v-1.3Z"/>
      <path class="cls-2" d="M27.89,14.55v.75h-.18v-.74c0-.27-.14-.41-.39-.41-.28,0-.45.17-.45.47v.68h-.18v-1.3h.17v.24c.09-.16.27-.25.49-.25.32,0,.53.18.53.56Z"/>
      <path class="cls-2" d="M28.56,13.86v.15h.4v.15h-.39v1.15h-.18v-1.15h-.23v-.15h.23v-.16c0-.23.14-.39.39-.39.1,0,.2.03.26.08l-.06.13s-.12-.06-.19-.06c-.15,0-.23.08-.23.24Z"/>
      <path class="cls-2" d="M29.05,14.66c0-.39.28-.66.66-.66s.66.27.66.66-.28.66-.66.66-.66-.28-.66-.66ZM30.19,14.66c0-.3-.2-.51-.48-.51s-.48.2-.48.51.21.51.48.51.48-.2.48-.51Z"/>
      <path class="cls-2" d="M31.38,14v.17s-.03,0-.04,0c-.27,0-.44.17-.44.48v.66h-.18v-1.3h.17v.25c.08-.17.25-.26.49-.26Z"/>
      <path class="cls-2" d="M33.85,14.55v.75h-.18v-.74c0-.27-.14-.41-.37-.41-.27,0-.43.17-.43.47v.68h-.18v-.74c0-.27-.14-.41-.38-.41-.26,0-.43.17-.43.47v.68h-.18v-1.3h.17v.24c.09-.16.26-.25.48-.25s.38.09.46.27c.09-.17.28-.27.51-.27.32,0,.52.18.52.56Z"/>
      <path class="cls-2" d="M35.46,14.71h-1.09c.02.27.23.45.51.45.16,0,.3-.06.4-.17l.1.11c-.12.14-.3.21-.5.21-.4,0-.68-.28-.68-.66s.27-.66.63-.66.63.27.63.66c0,.01,0,.03,0,.05ZM34.37,14.58h.92c-.02-.25-.21-.43-.46-.43s-.44.18-.46.43Z"/>
      <path class="cls-2" d="M37,13.48v1.83h-.17v-.26c-.11.18-.29.27-.5.27-.37,0-.65-.27-.65-.66s.28-.66.65-.66c.21,0,.39.09.49.26v-.78h.18ZM36.83,14.66c0-.3-.21-.51-.48-.51s-.48.2-.48.51.21.51.48.51.48-.2.48-.51Z"/>
      <path class="cls-2" d="M39.33,13.48v1.83h-.17v-.26c-.11.18-.29.27-.5.27-.37,0-.65-.27-.65-.66s.28-.66.65-.66c.21,0,.39.09.49.26v-.78h.18ZM39.15,14.66c0-.3-.21-.51-.48-.51s-.48.2-.48.51.21.51.48.51.48-.2.48-.51Z"/>
      <path class="cls-2" d="M40.95,14.71h-1.09c.02.27.23.45.51.45.16,0,.3-.06.4-.17l.1.11c-.12.14-.3.21-.5.21-.41,0-.68-.28-.68-.66s.27-.66.63-.66.63.27.63.66c0,.01,0,.03,0,.05ZM39.86,14.58h.92c-.02-.25-.21-.43-.46-.43s-.44.18-.46.43Z"/>
      <path class="cls-2" d="M41.13,15.16l.08-.14c.1.08.28.15.46.15.25,0,.35-.08.35-.21,0-.34-.84-.07-.84-.58,0-.21.18-.37.51-.37.17,0,.35.05.46.12l-.08.14c-.11-.08-.25-.11-.38-.11-.23,0-.34.09-.34.21,0,.35.84.09.84.59,0,.22-.2.37-.54.37-.21,0-.42-.07-.53-.16Z"/>
      <path class="cls-2" d="M42.48,13.6c0-.07.06-.12.13-.12s.13.05.13.12c0,.07-.05.13-.13.13s-.13-.06-.13-.13ZM42.51,14.01h.18v1.3h-.18v-1.3Z"/>
      <path class="cls-2" d="M44.38,14.01v1.14c0,.45-.22.65-.65.65-.24,0-.47-.07-.6-.2l.09-.13c.12.11.31.18.51.18.33,0,.48-.15.48-.47v-.17c-.11.17-.29.25-.51.25-.37,0-.65-.26-.65-.63s.28-.63.65-.63c.22,0,.41.09.51.26v-.25h.17ZM44.21,14.63c0-.28-.21-.47-.49-.47s-.49.19-.49.47.21.48.49.48.49-.19.49-.48Z"/>
      <path class="cls-2" d="M46.07,14.55v.75h-.18v-.74c0-.27-.14-.41-.39-.41-.28,0-.45.17-.45.47v.68h-.18v-1.3h.17v.24c.09-.16.27-.25.49-.25.32,0,.53.18.53.56Z"/>
    </g>
  </g>
</svg>